<svg xmlns="http://www.w3.org/2000/svg" xmlns:xlink="http://www.w3.org/1999/xlink" width="512" height="512" viewBox="0 0 512 512">
  <defs>
    <clipPath id="clip-trash-hover">
      <rect width="512" height="512"/>
    </clipPath>
  </defs>
  <g id="trash-hover" clip-path="url(#clip-trash-hover)">
    <g id="trash" transform="translate(4 5)">
      <path id="Path_1" data-name="Path 1" d="M416.317,62.692h-86.2V47.019A47.073,47.073,0,0,0,283.1,0H220.4a47.073,47.073,0,0,0-47.019,47.019V62.692h-86.2A39.227,39.227,0,0,0,48,101.875v54.856A15.674,15.674,0,0,0,63.673,172.4h8.565L85.779,456.756a46.963,46.963,0,0,0,46.965,44.783H370.756a46.961,46.961,0,0,0,46.965-44.783L431.262,172.4h8.565A15.674,15.674,0,0,0,455.5,156.731V101.875a39.227,39.227,0,0,0-39.183-39.183ZM204.731,47.019A15.691,15.691,0,0,1,220.4,31.346H283.1a15.691,15.691,0,0,1,15.673,15.673V62.692H204.731ZM79.346,101.875a7.846,7.846,0,0,1,7.837-7.837H416.317a7.846,7.846,0,0,1,7.837,7.837v39.183H79.346ZM386.41,455.265a15.654,15.654,0,0,1-15.654,14.928H132.744a15.653,15.653,0,0,1-15.654-14.928L103.62,172.4H399.88Z" fill="#eb5e28"/>
      <path id="Path_2" data-name="Path 2" d="M255.673,443.1a15.674,15.674,0,0,0,15.673-15.673V223.673a15.673,15.673,0,1,0-31.346,0v203.75A15.673,15.673,0,0,0,255.673,443.1Z" transform="translate(-3.923 -4.25)" fill="#eb5e28"/>
      <path id="Path_3" data-name="Path 3" d="M335.673,443.1a15.674,15.674,0,0,0,15.673-15.673V223.673a15.673,15.673,0,0,0-31.346,0v203.75A15.673,15.673,0,0,0,335.673,443.1Z" transform="translate(-5.558 -4.25)" fill="#eb5e28"/>
      <path id="Path_4" data-name="Path 4" d="M175.673,443.1a15.674,15.674,0,0,0,15.673-15.673V223.673a15.673,15.673,0,1,0-31.346,0v203.75A15.673,15.673,0,0,0,175.673,443.1Z" transform="translate(-2.288 -4.25)" fill="#eb5e28"/>
    </g>
  </g>
</svg>
