<svg xmlns="http://www.w3.org/2000/svg" xmlns:xlink="http://www.w3.org/1999/xlink" width="512" height="512" viewBox="0 0 512 512">
  <defs>
    <clipPath id="clip-undo">
      <rect width="512" height="512"/>
    </clipPath>
  </defs>
  <g id="undo" clip-path="url(#clip-undo)">
    <g id="undo-2" data-name="undo" transform="translate(10.069 5)">
      <path id="Path_5" data-name="Path 5" d="M442.486,313.9c0,104.263-84.831,189.087-189.087,189.087H186.466a20.077,20.077,0,0,1-20.08-20.079v-6.694a20.077,20.077,0,0,1,20.08-20.08H253.4c78.424,0,142.234-63.809,142.234-142.234S331.824,171.668,253.4,171.668H129.911l85.046,85.046a23.449,23.449,0,0,1,0,33.127c-8.863,8.857-24.289,8.844-33.133,0L56.794,164.808a23.423,23.423,0,0,1,0-33.13L181.831,6.637c8.844-8.85,24.283-8.85,33.127,0a23.445,23.445,0,0,1,0,33.124l-85.046,85.053H253.4C357.655,124.814,442.486,209.641,442.486,313.9Z" transform="translate(0)" fill="#252422"/>
    </g>
  </g>
</svg>
